HIERARCHY
ROOT Hips
{
 OFFSET 0.000000 0.000000 0.000000
 CHANNELS 6 Xposition Yposition Zposition Yrotation Xrotation Zrotation
 JOINT Chest
 {
  OFFSET 0.000000 9.588913 -0.003946
  CHANNELS 3 Yrotation Xrotation Zrotation
  JOINT Chest2
  {
   OFFSET 0.000000 9.541882 0.008053
   CHANNELS 3 Yrotation Xrotation Zrotation
   JOINT Chest3
   {
    OFFSET 0.000000 9.501360 0.000000
    CHANNELS 3 Yrotation Xrotation Zrotation
    JOINT Chest4
    {
     OFFSET 0.000000 9.491660 0.000000
     CHANNELS 3 Yrotation Xrotation Zrotation
     JOINT Neck
     {
      OFFSET 0.000000 14.331917 0.000000
      CHANNELS 3 Yrotation Xrotation Zrotation
      JOINT Head
      {
       OFFSET 0.000000 8.884799 0.017034
       CHANNELS 3 Yrotation Xrotation Zrotation
       End Site
       {
        OFFSET 0.000000 16.896195 0.008993
       }
      }
     }
     JOINT RightCollar
     {
      OFFSET -2.923010 9.499495 0.000000
      CHANNELS 3 Yrotation Xrotation Zrotation
      JOINT RightShoulder
      {
       OFFSET -13.795216 0.000000 0.000000
       CHANNELS 3 Yrotation Xrotation Zrotation
       JOINT RightElbow
       {
        OFFSET -30.272209 0.000000 0.000000
        CHANNELS 3 Yrotation Xrotation Zrotation
        JOINT RightWrist
        {
         OFFSET -24.478199 0.000000 0.000000
         CHANNELS 3 Yrotation Xrotation Zrotation
         End Site
         {
          OFFSET -18.090752 0.000000 0.000000
         }
        }
       }
      }
     }
     JOINT LeftCollar
     {
      OFFSET 2.923010 9.499495 0.000000
      CHANNELS 3 Yrotation Xrotation Zrotation
      JOINT LeftShoulder
      {
       OFFSET 13.795216 0.000000 0.000000
       CHANNELS 3 Yrotation Xrotation Zrotation
       JOINT LeftElbow
       {
        OFFSET 30.272209 0.000000 0.000000
        CHANNELS 3 Yrotation Xrotation Zrotation
        JOINT LeftWrist
        {
         OFFSET 24.478199 0.000000 0.000000
         CHANNELS 3 Yrotation Xrotation Zrotation
         End Site
         {
          OFFSET 18.090752 0.000000 0.000000
         }
        }
       }
      }
     }
    }
   }
  }
 }
 JOINT RightHip
 {
  OFFSET -7.826875 0.019532 0.001973
  CHANNELS 3 Yrotation Xrotation Zrotation
  JOINT RightKnee
  {
   OFFSET 0.000000 -40.546152 -0.001885
   CHANNELS 3 Yrotation Xrotation Zrotation
   JOINT RightAnkle
   {
    OFFSET 0.000000 -39.417092 -0.003189
    CHANNELS 3 Yrotation Xrotation Zrotation
    JOINT RightToe
    {
     OFFSET 0.000000 -7.579396 17.243563
     CHANNELS 3 Yrotation Xrotation Zrotation
     End Site
     {
      OFFSET 0.000000 -1.500329 6.694466
     }
    }
   }
  }
 }
 JOINT LeftHip
 {
  OFFSET 7.826875 0.019532 0.001973
  CHANNELS 3 Yrotation Xrotation Zrotation
  JOINT LeftKnee
  {
   OFFSET 0.000000 -40.546152 -0.001885
   CHANNELS 3 Yrotation Xrotation Zrotation
   JOINT LeftAnkle
   {
    OFFSET 0.000000 -39.417092 -0.003189
    CHANNELS 3 Yrotation Xrotation Zrotation
    JOINT LeftToe
    {
     OFFSET 0.000000 -7.579396 17.243563
     CHANNELS 3 Yrotation Xrotation Zrotation
     End Site
     {
      OFFSET 0.000000 -1.500329 6.694466
     }
    }
   }
  }
 }
}
MOTION
Frames: 9
Frame Time: 0.008333
0.000000 87.345680 0.000000 0.000000 -5.767889 0.000000 0.000000 11.653876 0.000000 0.000000 -5.885988 0.000000 0.000000 -0.000000 0.000000 0.000000 -0.000000 0.000000 0.000000 12.528808 0.000000 0.000000 0.711711 0.000000 0.000000 -0.000000 0.000000 0.000000 -0.000000 0.000000 2.309063 -0.000000 0.000000 -2.309063 -0.000000 -0.000000 0.000000 -0.000000 0.000000 0.000000 0.000000 0.000000 -2.309063 0.000000 0.000000 2.309063 -0.000000 0.000000 0.000000 8.520374 0.000000 0.000000 1.905768 0.000000 -0.000000 -4.658254 0.000000 0.000000 -0.000000 0.000000 0.000000 8.520374 0.000000 0.000000 1.905768 0.000000 -0.000000 -4.658254 0.000000 0.000000 -0.000000 0.000000
8.729246 87.845861 0.935734 -50.242499 -10.038740 1.214834 4.448807 2.933904 0.166293 2.505033 1.664555 0.229183 3.132660 2.079003 0.297870 2.505033 1.664555 0.229183 5.903756 18.108514 -3.807640 7.311052 -6.311506 -5.515088 -8.071083 -4.132595 -2.879502 -0.292651 -13.253201 78.829533 47.304716 -38.145660 28.662960 -0.486077 -13.707592 -22.227219 -12.845823 -5.297416 2.357447 9.886687 -11.477521 -90.959265 -30.547004 -24.506815 -46.769194 -2.450559 -11.030001 29.844795 0.131734 13.650137 -13.208974 -0.153038 1.543170 -0.434394 -0.193283 -4.450126 11.671938 0.138941 -0.455691 0.044200 15.474794 13.168348 9.404171 11.025941 0.539798 1.287633 1.893994 -3.677189 -6.939647 0.032965 0.512033 0.043465
8.763448 87.847781 0.950169 -50.289764 -10.041340 1.222119 4.452252 2.936696 0.152727 2.507356 1.667745 0.226270 3.135554 2.083009 0.294261 2.507356 1.667745 0.226270 5.822569 18.077786 -3.817951 7.221858 -6.351246 -5.505229 -8.067336 -4.145045 -2.874009 -0.299823 -13.265819 78.841130 47.294765 -38.137252 28.660528 -0.482966 -13.704732 -22.237186 -12.850836 -5.295891 2.352792 9.900481 -11.480023 -90.979425 -30.568465 -24.513686 -46.745675 -2.430303 -11.025154 29.832716 0.144323 13.625145 -13.246556 -0.160585 1.551095 -0.421449 -0.150785 -4.426753 11.699649 0.139403 -0.469579 0.038596 15.492276 13.202007 9.380653 11.030398 0.491495 1.257122 1.922355 -3.672578 -6.896376 0.028517 0.504787 0.038316
8.803333 87.849923 0.967953 -50.336177 -10.045293 1.230806 4.456689 2.940797 0.138782 2.509526 1.670844 0.223086 3.138256 2.086902 0.290312 2.509526 1.670844 0.223086 5.755283 18.046308 -3.825075 7.147602 -6.390924 -5.495470 -8.059036 -4.155273 -2.869990 -0.307662 -13.278049 78.842292 47.287678 -38.130634 28.655548 -0.479183 -13.702574 -22.247501 -12.857572 -5.293589 2.347164 9.915465 -11.486205 -90.997541 -30.589606 -24.517971 -46.725521 -2.411370 -11.021406 29.819821 0.162109 13.604896 -13.285191 -0.168925 1.552272 -0.414528 -0.115889 -4.396289 11.734727 0.140897 -0.485296 0.034172 15.504904 13.229908 9.348447 11.024250 0.457325 1.233749 1.959928 -3.674921 -6.852155 0.026703 0.498971 0.033905
8.847709 87.852090 0.988513 -50.382812 -10.048243 1.241315 4.463044 2.944125 0.123919 2.512073 1.672834 0.219229 3.141424 2.089414 0.285515 2.512073 1.672834 0.219229 5.701010 18.015033 -3.828035 7.086991 -6.429618 -5.484493 -8.052313 -4.163479 -2.865574 -0.305122 -13.285890 78.834357 47.287551 -38.125615 28.639767 -0.475132 -13.703296 -22.254305 -12.863182 -5.288635 2.340572 9.930492 -11.498137 -91.011768 -30.602947 -24.519137 -46.714536 -2.399714 -11.019380 29.808061 0.182670 13.585938 -13.325157 -0.174640 1.548021 -0.413520 -0.088225 -4.361013 11.775516 0.143135 -0.501436 0.031350 15.516659 13.248832 9.307717 11.014139 0.438354 1.218848 1.999105 -3.684043 -6.810172 0.026686 0.494565 0.031503
8.895021 87.854179 1.011587 -50.431219 -10.051120 1.254608 4.471386 2.945573 0.108341 2.515483 1.673629 0.214864 3.145669 2.090435 0.280080 2.515483 1.673629 0.214864 5.657831 17.985653 -3.826612 7.037781 -6.465610 -5.471557 -8.049082 -4.170644 -2.860275 -0.293875 -13.286575 78.822350 47.292864 -38.116358 28.612763 -0.473535 -13.704482 -22.253160 -12.865898 -5.280269 2.330144 9.941144 -11.515970 -91.021911 -30.604326 -24.519450 -46.712706 -2.398994 -11.021006 29.801529 0.206476 13.567888 -13.367825 -0.179390 1.541924 -0.415614 -0.064636 -4.324725 11.817225 0.146315 -0.516936 0.031761 15.534407 13.262176 9.261925 10.995082 0.430241 1.208531 2.039092 -3.697710 -6.767538 0.026692 0.491016 0.029005
8.943857 87.856131 1.037090 -50.481565 -10.056346 1.271705 4.480388 2.945816 0.092447 2.519171 1.673914 0.209862 3.150256 2.090823 0.273847 2.519171 1.673914 0.209862 5.624948 17.959631 -3.821322 6.999196 -6.497310 -5.457026 -8.042877 -4.176618 -2.855823 -0.279954 -13.279307 78.810831 47.301783 -38.105936 28.576235 -0.477014 -13.703600 -22.241438 -12.865755 -5.270534 2.316574 9.944626 -11.534287 -91.026943 -30.596555 -24.525832 -46.719127 -2.407683 -11.025627 29.806428 0.234789 13.553907 -13.414263 -0.187903 1.534715 -0.418810 -0.041504 -4.289350 11.857277 0.149792 -0.531298 0.035469 15.559341 13.276112 9.212701 10.966752 0.427095 1.199428 2.080876 -3.713267 -6.722181 0.026783 0.488080 0.025624
8.993442 87.857761 1.064219 -50.534086 -10.062407 1.291078 4.490260 2.945189 0.076886 2.523182 1.673763 0.204287 3.155245 2.090670 0.266894 2.523182 1.673763 0.204287 5.599927 17.937506 -3.812113 6.968472 -6.524303 -5.440212 -8.033026 -4.181898 -2.854365 -0.264977 -13.268359 78.802687 47.305362 -38.104587 28.538735 -0.484435 -13.701853 -22.225467 -12.863801 -5.261368 2.304180 9.942200 -11.551005 -91.030363 -30.584797 -24.535945 -46.729660 -2.421827 -11.029266 29.822979 0.267033 13.543587 -13.463138 -0.200636 1.523643 -0.422030 -0.017365 -4.253805 11.896389 0.153108 -0.544374 0.040331 15.590820 13.289449 9.161431 10.933490 0.427985 1.191845 2.122928 -3.731772 -6.676665 0.027989 0.486904 0.022963
9.043437 87.858879 1.092155 -50.589051 -10.067435 1.311216 4.501155 2.945123 0.061901 2.527745 1.673744 0.198317 3.160923 2.090684 0.259453 2.527745 1.673744 0.198317 5.580724 17.917928 -3.798522 6.943168 -6.548276 -5.420065 -8.022397 -4.188140 -2.854547 -0.254307 -13.261933 78.798047 47.298022 -38.109743 28.512138 -0.492519 -13.701703 -22.219209 -12.860571 -5.254640 2.296407 9.938234 -11.569066 -91.038202 -30.571686 -24.542582 -46.737356 -2.435211 -11.028364 29.843930 0.299736 13.533516 -13.513597 -0.214096 1.509310 -0.425208 0.009193 -4.218262 11.935565 0.156501 -0.556108 0.045022 15.629343 13.300195 9.109029 10.899241 0.432023 1.187486 2.161089 -3.754492 -6.633431 0.030101 0.488622 0.021651
